<svg width="148" height="25" viewBox="0 0 148 25" fill="none" xmlns="http://www.w3.org/2000/svg">
<path d="M33.3503 16.2445C33.3503 11.9343 36.4954 8.81921 40.9468 8.84859C45.157 8.87798 48.5232 12.3947 48.4126 16.4992C48.4126 16.8421 48.3724 17.2143 48.3121 17.616H37.7113C38.0529 19.2519 39.2185 20.1923 40.8765 20.1923C41.9215 20.1923 42.8158 19.8886 43.2981 19.4086C43.489 19.2127 43.7502 19.0853 44.0316 19.0853H46.4331C47.2169 19.0853 47.7092 19.9278 47.2872 20.5744C46.0814 22.4258 43.7301 23.6111 40.9468 23.6307C36.7064 23.6601 33.3403 20.3784 33.3403 16.2347L33.3503 16.2445ZM44.122 14.8535C43.7502 13.1686 42.6148 12.2478 40.8865 12.2478C39.1582 12.2478 38.073 13.1588 37.7012 14.8535H44.122Z" fill="#3E71F0"/>
<path d="M55.3859 23.2978H50.9848V4.03892C50.9848 3.50014 51.437 3.05933 51.9896 3.05933H54.3911C54.9437 3.05933 55.3959 3.50014 55.3959 4.03892V23.2978H55.3859Z" fill="#3E71F0"/>
<path d="M63.0727 23.2978H58.6716V4.03892C58.6716 3.50014 59.1237 3.05933 59.6764 3.05933H62.0779C62.6306 3.05933 63.0827 3.50014 63.0827 4.03892V23.2978H63.0727Z" fill="#3E71F0"/>
<path d="M73.3021 23.6405C68.8306 23.6405 65.6152 20.5352 65.6152 16.2446C65.6152 11.9539 68.8306 8.84863 73.3021 8.84863C76.4974 8.84863 79.0296 10.5433 80.0444 12.8846C80.3157 13.5213 79.8133 14.2168 79.11 14.2168H76.618C76.2663 14.2168 75.9548 14.0307 75.7639 13.7368C75.3017 13.0413 74.4476 12.5809 73.3121 12.5809C71.2623 12.5809 69.9259 14.1188 69.9259 16.2446C69.9259 18.3703 71.2623 19.9082 73.3121 19.9082C74.4476 19.9082 75.3419 19.438 75.8342 18.6837C76.0252 18.3997 76.3366 18.2233 76.6783 18.2233H79.1401C79.8535 18.2233 80.356 18.9483 80.0646 19.585C78.9392 22.083 76.4271 23.6405 73.3021 23.6405Z" fill="#113694"/>
<path d="M83.8522 3.06934H86.2537C86.8064 3.06934 87.2585 3.51015 87.2585 4.04893V10.6318C88.1227 9.49548 89.4591 8.84897 91.308 8.84897C94.6641 8.84897 96.9651 11.2294 96.9651 15.138V23.3078H92.564V15.8628C92.564 13.7175 91.6797 12.542 90.0218 12.542C88.3638 12.542 87.2585 13.8645 87.2585 16.0588V23.3078H82.8574V4.04893C82.8574 3.51015 83.3096 3.06934 83.8622 3.06934H83.8522Z" fill="#113694"/>
<path d="M99.1561 16.2445C99.1561 11.9343 102.301 8.81921 106.752 8.84859C110.963 8.87798 114.329 12.3947 114.218 16.4992C114.218 16.8421 114.178 17.2143 114.118 17.616H103.517C103.859 19.2519 105.024 20.1923 106.682 20.1923C107.727 20.1923 108.621 19.8886 109.104 19.4086C109.295 19.2127 109.556 19.0853 109.837 19.0853H112.239C113.023 19.0853 113.515 19.9278 113.093 20.5744C111.887 22.4258 109.536 23.6111 106.752 23.6307C102.512 23.6601 99.146 20.3784 99.146 16.2347L99.1561 16.2445ZM109.928 14.8535C109.556 13.1686 108.42 12.2478 106.692 12.2478C104.964 12.2478 103.879 13.1588 103.507 14.8535H109.928Z" fill="#113694"/>
<path d="M123.744 23.6405C119.272 23.6405 116.057 20.5352 116.057 16.2446C116.057 11.9539 119.272 8.84863 123.744 8.84863C126.939 8.84863 129.471 10.5433 130.486 12.8846C130.757 13.5213 130.255 14.2168 129.551 14.2168H127.059C126.708 14.2168 126.396 14.0307 126.205 13.7368C125.743 13.0413 124.889 12.5809 123.754 12.5809C121.704 12.5809 120.367 14.1188 120.367 16.2446C120.367 18.3703 121.704 19.9082 123.754 19.9082C124.889 19.9082 125.783 19.438 126.276 18.6837C126.467 18.3997 126.778 18.2233 127.12 18.2233H129.582C130.295 18.2233 130.797 18.9483 130.506 19.585C129.381 22.083 126.869 23.6405 123.744 23.6405Z" fill="#113694"/>
<path d="M139.449 18.1257L137.69 20.0555V23.3078H133.289V4.04893C133.289 3.51015 133.741 3.06934 134.294 3.06934H136.696C137.248 3.06934 137.7 3.51015 137.7 4.04893V14.9518L142.514 9.53467C142.704 9.31916 142.976 9.20161 143.267 9.20161H145.458C146.322 9.20161 146.784 10.2008 146.201 10.8277L142.142 15.2261L148 23.3176H142.986L139.449 18.1355V18.1257Z" fill="#113694"/>
<path d="M26.4365 20.1824L18.9607 7.55542L14.8911 13.5212L20.7392 23.3857C21.6435 24.9236 23.6632 25.4428 25.2308 24.5612C26.8083 23.6795 27.3408 21.7106 26.4365 20.1824Z" fill="#113694"/>
<path d="M12.1988 24.571C13.7764 23.6893 14.3089 21.7204 13.4046 20.1922L6.13976 7.92767C5.23542 6.3897 3.2157 5.8705 1.64818 6.75214C0.0706129 7.63378 -0.461954 9.60276 0.442384 11.1309L7.70728 23.3955C8.61161 24.9334 10.6313 25.4526 12.1988 24.571Z" fill="#3E71F0"/>
<path d="M6.57156 9.51482C6.57156 7.74175 5.10451 6.31152 3.28578 6.31152C1.46706 6.31152 0 7.74175 0 9.51482C0 11.2879 1.46706 12.7181 3.28578 12.7181C5.10451 12.7181 6.57156 11.2879 6.57156 9.51482Z" fill="#20C4A0"/>
<path d="M8.45084 19.4184C11.9577 15.7351 13.4548 7.88858 13.1232 3.37265C12.9725 1.35468 14.2888 0.0812363 16.1578 0.00286872C17.9162 -0.0754989 19.4536 1.46246 19.5641 3.3041C19.9359 9.41677 17.6751 19.8103 13.0629 24.003C11.7265 25.2079 9.79727 25.3646 8.42067 24.2087C7.07421 23.0821 7.10438 20.8976 8.45084 19.4282V19.4184Z" fill="#3E71F0"/>
<path d="M21.4031 19.4184C24.9099 15.7351 26.4071 7.88858 26.0755 3.37265C25.9248 1.35468 27.2411 0.0812363 29.1101 0.00286872C30.8685 -0.0754989 32.4059 1.46246 32.5164 3.3041C32.8882 9.41677 30.6273 19.8103 26.0152 24.003C24.6788 25.2079 22.7495 25.3646 21.3729 24.2087C20.0265 23.0821 20.0567 20.8976 21.4031 19.4282V19.4184Z" fill="#3E71F0"/>
</svg>
